<?xml version="1.0" encoding="utf-8"?>
<svg xmlns="http://www.w3.org/2000/svg" xmlns:xlink="http://www.w3.org/1999/xlink" style="margin: auto; background: rgb(241, 242, 243); display: block; z-index: 1; position: relative; shape-rendering: auto;" width="1920" height="1080" preserveAspectRatio="xMidYMid" viewBox="0 0 1920 1080">
<g transform="translate(960,540) scale(1,1) translate(-960,-540)"><path id="path0" d="M 1750.1242098432015 782.765799526727
c 0 34.9017338867338 -8.539785951009332 10.024966116402261 -18.564752067411593 10.024966116402261
S 1712.9947057083784 817.6675334134609 1712.9947057083784 782.765799526727
s 8.539785951009332 -10.024966116402261 18.564752067411593 -10.024966116402261
S 1750.1242098432015 747.8640656399932 1750.1242098432015 782.765799526727
z" fill="none" stroke="none"></path>
<circle cx="0" cy="0" r="7.663419583241631" fill="#72cbfd" opacity="0.9">
  <animateMotion begin="-18.263202247848078s" dur="20s" repeatCount="indefinite">
    <mpath xlink:href="#path0"></mpath>
  </animateMotion>
</circle><path id="path1" d="M 45.30579177117646 500.3027079351943
c 0 25.272077535344433 -6.183593439499169 7.259000994194677 -13.442594433693847 7.259000994194677
S 18.42060290378876 525.5747854705387 18.42060290378876 500.3027079351943
s 6.183593439499169 -7.259000994194677 13.442594433693847 -7.259000994194677
S 45.30579177117646 475.0306303998499 45.30579177117646 500.3027079351943
z" fill="none" stroke="none"></path>
<circle cx="0" cy="0" r="7.470297311850964" fill="#72cbfd" opacity="0.9">
  <animateMotion begin="-2.5832684723203325s" dur="20s" repeatCount="indefinite">
    <mpath xlink:href="#path1"></mpath>
  </animateMotion>
</circle><path id="path2" d="M 1901.2697611579533 929.021705062559
c 0 32.71361650942456 -8.004395528901753 9.396464316536843 -17.400859845438596 9.396464316536843
S 1866.468041467076 961.7353215719836 1866.468041467076 929.021705062559
s 8.004395528901753 -9.396464316536843 17.400859845438596 -9.396464316536843
S 1901.2697611579533 896.3080885531344 1901.2697611579533 929.021705062559
z" fill="none" stroke="none"></path>
<circle cx="0" cy="0" r="6.651736762205544" fill="#72cbfd" opacity="0.9">
  <animateMotion begin="-0.2630976031693155s" dur="20s" repeatCount="indefinite">
    <mpath xlink:href="#path2"></mpath>
  </animateMotion>
</circle><path id="path3" d="M 1154.6948060871064 852.1698377272279
c 0 23.378994897835852 -5.72039236861941 6.71524321533583 -12.43563558395524 6.71524321533583
S 1129.823534919196 875.5488326250637 1129.823534919196 852.1698377272279
s 5.72039236861941 -6.71524321533583 12.43563558395524 -6.71524321533583
S 1154.6948060871064 828.7908428293921 1154.6948060871064 852.1698377272279
z" fill="none" stroke="none"></path>
<circle cx="0" cy="0" r="5.064169143625671" fill="#72cbfd" opacity="0.9">
  <animateMotion begin="-14.116291761609215s" dur="20s" repeatCount="indefinite">
    <mpath xlink:href="#path3"></mpath>
  </animateMotion>
</circle><path id="path4" d="M 1094.6154648815327 956.9803919868037
c 0 33.02572507890283 -8.08076251930601 9.486112522663579 -17.56687504196959 9.486112522663579
S 1059.4817147975937 990.0061170657066 1059.4817147975937 956.9803919868037
s 8.08076251930601 -9.486112522663579 17.56687504196959 -9.486112522663579
S 1094.6154648815327 923.9546669079009 1094.6154648815327 956.9803919868037
z" fill="none" stroke="none"></path>
<circle cx="0" cy="0" r="4.862478117268484" fill="#72cbfd" opacity="0.9">
  <animateMotion begin="-11.660509047303332s" dur="20s" repeatCount="indefinite">
    <mpath xlink:href="#path4"></mpath>
  </animateMotion>
</circle><path id="path5" d="M 203.3699262794795 976.5716990153619
c 0 27.968572797764423 -6.843374195197677 8.033526229145101 -14.876900424342779 8.033526229145101
S 173.61612543079394 1004.5402718131263 173.61612543079394 976.5716990153619
s 6.843374195197677 -8.033526229145101 14.876900424342779 -8.033526229145101
S 203.3699262794795 948.6031262175975 203.3699262794795 976.5716990153619
z" fill="none" stroke="none"></path>
<circle cx="0" cy="0" r="4.9348118146469" fill="#72cbfd" opacity="0.9">
  <animateMotion begin="-6.29020840316334s" dur="20s" repeatCount="indefinite">
    <mpath xlink:href="#path5"></mpath>
  </animateMotion>
</circle><path id="path6" d="M 866.2270024079595 109.93860248143571
c 0 25.174371040192586 -6.1596865311109505 7.230936362608508 -13.39062289371946 7.230936362608508
S 839.4457566205207 135.1129735216283 839.4457566205207 109.93860248143571
s 6.1596865311109505 -7.230936362608508 13.39062289371946 -7.230936362608508
S 866.2270024079595 84.76423144124313 866.2270024079595 109.93860248143571
z" fill="none" stroke="none"></path>
<circle cx="0" cy="0" r="5.700089773440299" fill="#0b1d27" opacity="0.9">
  <animateMotion begin="-11.448361834675547s" dur="20s" repeatCount="indefinite">
    <mpath xlink:href="#path6"></mpath>
  </animateMotion>
</circle><path id="path7" d="M 271.49801426561174 874.781767043377
c 0 31.615676499320372 -7.735750632812431 9.081098568953724 -16.816849201766153 9.081098568953724
S 237.86431586207945 906.3974435426974 237.86431586207945 874.781767043377
s 7.735750632812431 -9.081098568953724 16.816849201766153 -9.081098568953724
S 271.49801426561174 843.1660905440567 271.49801426561174 874.781767043377
z" fill="none" stroke="none"></path>
<circle cx="0" cy="0" r="4.762173176470547" fill="#0b1d27" opacity="0.9">
  <animateMotion begin="-9.895032791924706s" dur="20s" repeatCount="indefinite">
    <mpath xlink:href="#path7"></mpath>
  </animateMotion>
</circle><path id="path8" d="M 546.3845736919772 47.853528201773116
c 0 27.46643049886597 -6.7205095901480565 7.889293866695546 -14.609803456843602 7.889293866695546
S 517.16496677829 75.31995870063909 517.16496677829 47.853528201773116
s 6.7205095901480565 -7.889293866695546 14.609803456843602 -7.889293866695546
S 546.3845736919772 20.387097702907145 546.3845736919772 47.853528201773116
z" fill="none" stroke="none"></path>
<circle cx="0" cy="0" r="7.9743209254955385" fill="#72cbfd" opacity="0.9">
  <animateMotion begin="-18.352145302216623s" dur="20s" repeatCount="indefinite">
    <mpath xlink:href="#path8"></mpath>
  </animateMotion>
</circle><path id="path9" d="M 719.5152318321299 861.7900467986952
c 0 25.924894435273544 -6.343325234162675 7.4465122314083585 -13.789837465571033 7.4465122314083585
S 691.9355569009878 887.7149412339688 691.9355569009878 861.7900467986952
s 6.343325234162675 -7.4465122314083585 13.789837465571033 -7.4465122314083585
S 719.5152318321299 835.8651523634217 719.5152318321299 861.7900467986952
z" fill="none" stroke="none"></path>
<circle cx="0" cy="0" r="5.8428425592224835" fill="#72cbfd" opacity="0.9">
  <animateMotion begin="-14.190683712789314s" dur="20s" repeatCount="indefinite">
    <mpath xlink:href="#path9"></mpath>
  </animateMotion>
</circle><path id="path10" d="M 1307.6535928253738 966.8241318227058
c 0 36.31369460765456 -8.885265701872923 10.43052930219865 -19.315795004071575 10.43052930219865
S 1269.0220028172307 1003.1378264303604 1269.0220028172307 966.8241318227058
s 8.885265701872923 -10.43052930219865 19.315795004071575 -10.43052930219865
S 1307.6535928253738 930.5104372150512 1307.6535928253738 966.8241318227058
z" fill="none" stroke="none"></path>
<circle cx="0" cy="0" r="6.4923549828822225" fill="#72cbfd" opacity="0.9">
  <animateMotion begin="-9.854496012812941s" dur="20s" repeatCount="indefinite">
    <mpath xlink:href="#path10"></mpath>
  </animateMotion>
</circle><path id="path11" d="M 825.6576173185252 632.1044547911549
c 0 29.102503946720375 -7.120825433772006 8.359229857036704 -15.48005529080871 8.359229857036704
S 794.6975067369077 661.2069587378753 794.6975067369077 632.1044547911549
s 7.120825433772006 -8.359229857036704 15.48005529080871 -8.359229857036704
S 825.6576173185252 603.0019508444345 825.6576173185252 632.1044547911549
z" fill="none" stroke="none"></path>
<circle cx="0" cy="0" r="7.9464491556743635" fill="#72cbfd" opacity="0.9">
  <animateMotion begin="-19.788346297351723s" dur="20s" repeatCount="indefinite">
    <mpath xlink:href="#path11"></mpath>
  </animateMotion>
</circle><path id="path12" d="M 1195.9380328153038 891.9745740702417
c 0 21.441032283345578 -5.246210026776045 6.158594379258836 -11.40480440603488 6.158594379258836
S 1173.1284240032342 913.4156063535872 1173.1284240032342 891.9745740702417
s 5.246210026776045 -6.158594379258836 11.40480440603488 -6.158594379258836
S 1195.9380328153038 870.5335417868962 1195.9380328153038 891.9745740702417
z" fill="none" stroke="none"></path>
<circle cx="0" cy="0" r="4.41399405805231" fill="#0b1d27" opacity="0.9">
  <animateMotion begin="-7.695207972525653s" dur="20s" repeatCount="indefinite">
    <mpath xlink:href="#path12"></mpath>
  </animateMotion>
</circle><path id="path13" d="M 416.91726344175515 347.51246470943636
c 0 26.97139049812924 -6.5993827814571535 7.747101526058398 -14.346484307515553 7.747101526058398
S 388.2242948267241 374.4838552075656 388.2242948267241 347.51246470943636
s 6.5993827814571535 -7.747101526058398 14.346484307515553 -7.747101526058398
S 416.91726344175515 320.5410742113071 416.91726344175515 347.51246470943636
z" fill="none" stroke="none"></path>
<circle cx="0" cy="0" r="6.872200751000356" fill="#72cbfd" opacity="0.9">
  <animateMotion begin="-14.98485054022427s" dur="20s" repeatCount="indefinite">
    <mpath xlink:href="#path13"></mpath>
  </animateMotion>
</circle><path id="path14" d="M 464.97800449226366 138.07103637869
c 0 34.77061375779285 -8.507703366268462 9.987303951706457 -18.495007317974917 9.987303951706457
S 427.98798985631385 172.84165013648285 427.98798985631385 138.07103637869
s 8.507703366268462 -9.987303951706457 18.495007317974917 -9.987303951706457
S 464.97800449226366 103.30042262089714 464.97800449226366 138.07103637869
z" fill="none" stroke="none"></path>
<circle cx="0" cy="0" r="6.064028483799567" fill="#0b1d27" opacity="0.9">
  <animateMotion begin="-4.4208195448997145s" dur="20s" repeatCount="indefinite">
    <mpath xlink:href="#path14"></mpath>
  </animateMotion>
</circle><path id="path15" d="M 1176.9158715311073 50.35139611701713
c 0 32.93421055648731 -8.058370668076682 9.459826436437844 -17.518197104514527 9.459826436437844
S 1141.8794773220784 83.28560667350445 1141.8794773220784 50.35139611701713
s 8.058370668076682 -9.459826436437844 17.518197104514527 -9.459826436437844
S 1176.9158715311073 17.417185560529823 1176.9158715311073 50.35139611701713
z" fill="none" stroke="none"></path>
<circle cx="0" cy="0" r="4.202630799485515" fill="#0b1d27" opacity="0.9">
  <animateMotion begin="-7.940013297621045s" dur="20s" repeatCount="indefinite">
    <mpath xlink:href="#path15"></mpath>
  </animateMotion>
</circle><path id="path16" d="M 35.78632035116978 158.5720652049477
c 0 34.69089386543613 -8.488197435159902 9.964405684752931 -18.452603119912833 9.964405684752931
S -1.1188858886558855 193.26295907038383 -1.1188858886558855 158.5720652049477
s 8.488197435159902 -9.964405684752931 18.452603119912833 -9.964405684752931
S 35.78632035116978 123.88117133951158 35.78632035116978 158.5720652049477
z" fill="none" stroke="none"></path>
<circle cx="0" cy="0" r="4.6912730334739035" fill="#72cbfd" opacity="0.9">
  <animateMotion begin="-7.118598207744569s" dur="20s" repeatCount="indefinite">
    <mpath xlink:href="#path16"></mpath>
  </animateMotion>
</circle><path id="path17" d="M 1528.1427153318105 811.0599980051112
c 0 23.143766616055085 -5.66283651243901 6.647677645037099 -12.31051415747611 6.647677645037099
S 1503.5216870168583 834.2037646211663 1503.5216870168583 811.0599980051112
s 5.66283651243901 -6.647677645037099 12.31051415747611 -6.647677645037099
S 1528.1427153318105 787.9162313890561 1528.1427153318105 811.0599980051112
z" fill="none" stroke="none"></path>
<circle cx="0" cy="0" r="7.837345489799842" fill="#0b1d27" opacity="0.9">
  <animateMotion begin="-16.143731522965407s" dur="20s" repeatCount="indefinite">
    <mpath xlink:href="#path17"></mpath>
  </animateMotion>
</circle><path id="path18" d="M 1490.5452808548032 1044.0224774467931
c 0 27.26044020492737 -6.670107709716271 7.830126441840841 -14.500234151557112 7.830126441840841
S 1461.544812551689 1071.2829176517205 1461.544812551689 1044.0224774467931
s 6.670107709716271 -7.830126441840841 14.500234151557112 -7.830126441840841
S 1490.5452808548032 1016.7620372418658 1490.5452808548032 1044.0224774467931
z" fill="none" stroke="none"></path>
<circle cx="0" cy="0" r="5.696846192825006" fill="#72cbfd" opacity="0.9">
  <animateMotion begin="-16.488249139119464s" dur="20s" repeatCount="indefinite">
    <mpath xlink:href="#path18"></mpath>
  </animateMotion>
</circle><path id="path19" d="M 1339.5866683379077 164.44601927625453
c 0 28.291409554934887 -6.9223661676968335 8.126255935991935 -15.04862210368877 8.126255935991935
S 1309.48942413053 192.73742883118942 1309.48942413053 164.44601927625453
s 6.9223661676968335 -8.126255935991935 15.04862210368877 -8.126255935991935
S 1339.5866683379077 136.15460972131964 1339.5866683379077 164.44601927625453
z" fill="none" stroke="none"></path>
<circle cx="0" cy="0" r="6.615941258415682" fill="#72cbfd" opacity="0.9">
  <animateMotion begin="-6.107682839391884s" dur="20s" repeatCount="indefinite">
    <mpath xlink:href="#path19"></mpath>
  </animateMotion>
</circle><path id="path20" d="M 1843.1441662578086 376.95122956359967
c 0 26.458667650874172 -6.473929318830914 7.599830069931943 -14.073759388762856 7.599830069931943
S 1814.9966474802827 403.40989721447386 1814.9966474802827 376.95122956359967
s 6.473929318830914 -7.599830069931943 14.073759388762856 -7.599830069931943
S 1843.1441662578086 350.4925619127255 1843.1441662578086 376.95122956359967
z" fill="none" stroke="none"></path>
<circle cx="0" cy="0" r="5.115061827369987" fill="#0b1d27" opacity="0.9">
  <animateMotion begin="-6.780765003608176s" dur="20s" repeatCount="indefinite">
    <mpath xlink:href="#path20"></mpath>
  </animateMotion>
</circle><path id="path21" d="M 74.20745675666339 377.53051152432107
c 0 31.938130634842658 -7.814648985121075 9.173718373837785 -16.98836735895886 9.173718373837785
S 40.23072203874566 409.4686421591637 40.23072203874566 377.53051152432107
s 7.814648985121075 -9.173718373837785 16.98836735895886 -9.173718373837785
S 74.20745675666339 345.5923808894784 74.20745675666339 377.53051152432107
z" fill="none" stroke="none"></path>
<circle cx="0" cy="0" r="7.631745669925232" fill="#72cbfd" opacity="0.9">
  <animateMotion begin="-3.4555374318312726s" dur="20s" repeatCount="indefinite">
    <mpath xlink:href="#path21"></mpath>
  </animateMotion>
</circle><path id="path22" d="M 584.5619648596726 289.2101652445935
c 0 19.38009603328051 -4.741938391121827 5.566623328708232 -10.308561719830058 5.566623328708232
S 563.9448414200124 308.590261277874 563.9448414200124 289.2101652445935
s 4.741938391121827 -5.566623328708232 10.308561719830058 -5.566623328708232
S 584.5619648596726 269.830069211313 584.5619648596726 289.2101652445935
z" fill="none" stroke="none"></path>
<circle cx="0" cy="0" r="7.677065227085496" fill="#72cbfd" opacity="0.9">
  <animateMotion begin="-14.543167852761103s" dur="20s" repeatCount="indefinite">
    <mpath xlink:href="#path22"></mpath>
  </animateMotion>
</circle><path id="path23" d="M 681.510586357689 868.8164704953257
c 0 23.54160919902881 -5.760180974230453 6.761951578444446 -12.522132552674899 6.761951578444446
S 656.4663212523393 892.3580796943545 656.4663212523393 868.8164704953257
s 5.760180974230453 -6.761951578444446 12.522132552674899 -6.761951578444446
S 681.510586357689 845.2748612962969 681.510586357689 868.8164704953257
z" fill="none" stroke="none"></path>
<circle cx="0" cy="0" r="4.2402676968059785" fill="#72cbfd" opacity="0.9">
  <animateMotion begin="-12.973230346347577s" dur="20s" repeatCount="indefinite">
    <mpath xlink:href="#path23"></mpath>
  </animateMotion>
</circle><path id="path24" d="M 1557.6254051007284 520.9256509660805
c 0 20.658872888297658 -5.05483060032815 5.933931574298264 -10.988762174626414 5.933931574298264
S 1535.6478807514757 541.5845238543782 1535.6478807514757 520.9256509660805
s 5.05483060032815 -5.933931574298264 10.988762174626414 -5.933931574298264
S 1557.6254051007284 500.2667780777829 1557.6254051007284 520.9256509660805
z" fill="none" stroke="none"></path>
<circle cx="0" cy="0" r="5.859989137346739" fill="#72cbfd" opacity="0.9">
  <animateMotion begin="-2.7612652492563905s" dur="20s" repeatCount="indefinite">
    <mpath xlink:href="#path24"></mpath>
  </animateMotion>
</circle><path id="path25" d="M 739.7834835990569 645.5661787135872
c 0 19.36525735516827 -4.738307650732661 5.562361155207908 -10.30066880594057 5.562361155207908
S 719.1821459871759 664.9314360687555 719.1821459871759 645.5661787135872
s 4.738307650732661 -5.562361155207908 10.30066880594057 -5.562361155207908
S 739.7834835990569 626.2009213584189 739.7834835990569 645.5661787135872
z" fill="none" stroke="none"></path>
<circle cx="0" cy="0" r="4.948843381924658" fill="#72cbfd" opacity="0.9">
  <animateMotion begin="-11.981502482931571s" dur="20s" repeatCount="indefinite">
    <mpath xlink:href="#path25"></mpath>
  </animateMotion>
</circle><path id="path26" d="M 971.782701005721 171.77928497457947
c 0 21.390566139919514 -5.233861927852646 6.144098784870499 -11.377960712723144 6.144098784870499
S 949.0267795802747 193.16985111449898 949.0267795802747 171.77928497457947
s 5.233861927852646 -6.144098784870499 11.377960712723144 -6.144098784870499
S 971.782701005721 150.38871883465995 971.782701005721 171.77928497457947
z" fill="none" stroke="none"></path>
<circle cx="0" cy="0" r="6.329095025076418" fill="#72cbfd" opacity="0.9">
  <animateMotion begin="-14.444792561984858s" dur="20s" repeatCount="indefinite">
    <mpath xlink:href="#path26"></mpath>
  </animateMotion>
</circle><path id="path27" d="M 70.98156081505353 517.5177881048584
c 0 28.534874044206383 -6.981937266135604 8.196187225463536 -15.178124491599139 8.196187225463536
S 40.62531183185526 546.0526621490648 40.62531183185526 517.5177881048584
s 6.981937266135604 -8.196187225463536 15.178124491599139 -8.196187225463536
S 70.98156081505353 488.982914060652 70.98156081505353 517.5177881048584
z" fill="none" stroke="none"></path>
<circle cx="0" cy="0" r="5.8348026058627465" fill="#72cbfd" opacity="0.9">
  <animateMotion begin="-16.212469820671608s" dur="20s" repeatCount="indefinite">
    <mpath xlink:href="#path27"></mpath>
  </animateMotion>
</circle><path id="path28" d="M 784.1129028868813 158.68387620601644
c 0 26.188151689674775 -6.407739243218296 7.522128676821478 -13.929867920039774 7.522128676821478
S 756.2531670468018 184.87202789569122 756.2531670468018 158.68387620601644
s 6.407739243218296 -7.522128676821478 13.929867920039774 -7.522128676821478
S 784.1129028868813 132.49572451634165 784.1129028868813 158.68387620601644
z" fill="none" stroke="none"></path>
<circle cx="0" cy="0" r="4.958927790802052" fill="#72cbfd" opacity="0.9">
  <animateMotion begin="-17.597812740471163s" dur="20s" repeatCount="indefinite">
    <mpath xlink:href="#path28"></mpath>
  </animateMotion>
</circle><path id="path29" d="M 64.00165769566436 479.98458151467185
c 0 30.632725882668403 -7.4952414393763105 8.798761689702626 -16.294003129078938 8.798761689702626
S 31.413651437506495 510.61730739734026 31.413651437506495 479.98458151467185
s 7.4952414393763105 -8.798761689702626 16.294003129078938 -8.798761689702626
S 64.00165769566436 449.35185563200343 64.00165769566436 479.98458151467185
z" fill="none" stroke="none"></path>
<circle cx="0" cy="0" r="4.512389608188561" fill="#72cbfd" opacity="0.9">
  <animateMotion begin="-14.753248176763742s" dur="20s" repeatCount="indefinite">
    <mpath xlink:href="#path29"></mpath>
  </animateMotion>
</circle></g>
</svg>